<svg width="36" height="36" viewBox="0 0 36 36" fill="none" xmlns="http://www.w3.org/2000/svg">
<g clip-path="url(#clip0_410_816)">
<path d="M30.384 16.38C32.1086 16.773 33.6282 17.7871 34.6529 19.2289C35.6776 20.6706 36.1358 22.4391 35.9399 24.1971C35.7441 25.955 34.908 27.5794 33.5912 28.7603C32.2743 29.9412 30.5688 30.5961 28.8 30.6H9C6.76809 30.6022 4.61496 29.7751 2.9586 28.2791C1.30224 26.7831 0.260826 24.7251 0.0365219 22.5045C-0.187783 20.2839 0.421028 18.0591 1.74477 16.2621C3.0685 14.4651 5.01272 13.2241 7.2 12.78V12.6C7.19887 11.648 7.44942 10.7126 7.92626 9.8887C8.4031 9.06475 9.08928 8.38151 9.91527 7.90822C10.7413 7.43492 11.6777 7.18839 12.6296 7.19362C13.5816 7.19884 14.5153 7.45564 15.336 7.93797C16.5991 6.68996 18.2043 5.84517 19.9482 5.51076C21.692 5.17635 23.4959 5.36737 25.131 6.0596C26.7662 6.75184 28.1589 7.91409 29.1326 9.39896C30.1062 10.8838 30.617 12.6244 30.6 14.4C30.6 15.084 30.528 15.732 30.384 16.38ZM19.8 19.8H25.2L18 12.6L10.8 19.8H16.2V25.2H19.8V19.8Z" fill="#F8F8F8"/>
</g>
<defs>
<clipPath id="clip0_410_816">
<rect width="36" height="36" fill="white"/>
</clipPath>
</defs>
</svg>
